<svg width="4" height="12" viewBox="0 0 4 12" fill="none" xmlns="http://www.w3.org/2000/svg">
<path d="M0.159973 4.68003V0.280029H3.83997V4.68003L3.19997 7.40003H0.799973L0.159973 4.68003ZM0.239973 9.96003C0.239973 9.48003 0.41064 9.06936 0.751973 8.72803C1.10397 8.37603 1.51997 8.20003 1.99997 8.20003C2.46931 8.20003 2.87997 8.37603 3.23197 8.72803C3.58397 9.08003 3.75997 9.4907 3.75997 9.96003C3.75997 10.44 3.58397 10.856 3.23197 11.208C2.89064 11.5494 2.47997 11.72 1.99997 11.72C1.50931 11.72 1.09331 11.5494 0.751973 11.208C0.41064 10.8667 0.239973 10.4507 0.239973 9.96003Z" fill="white"/>
</svg>
