<?xml version="1.0" encoding="UTF-8"?>
<svg xmlns="http://www.w3.org/2000/svg" viewBox="100 1100 600 200">
  <defs>
    <style>
      .cls-1, .cls-2, .cls-3 {
        fill-rule: evenodd;
      }

      .cls-1, .cls-2, .cls-3, .cls-4, .cls-5, .cls-6, .cls-7, .cls-8 {
        stroke-width: 0px;
      }

      .cls-1, .cls-8 {
        fill: #050e0b;
      }

      .cls-2, .cls-4 {
        fill: #d90217;
      }

      .cls-3, .cls-5 {
        fill: #fff;
      }

      .cls-6 {
        fill: #fefefe;
      }

      .cls-7 {
        fill: #018367;
      }
	  
	  .green-fill {
		fill: rgb(1, 131, 103);
	  }
    </style>
  </defs>
  <g id="logo">
    <g>
      <path class="cls-2" d="M224.79,1170.01c-3.66-5.98-8.08-11.62-13.24-16.78-5.16-5.16-10.8-9.58-16.78-13.24-13.29-8.16-29-8.16-42.29,0-5.98,3.66-11.62,8.08-16.78,13.24-5.16,5.16-9.58,10.8-13.24,16.78-8.16,13.29-8.16,29,0,42.29,3.66,5.98,8.08,11.59,13.24,16.78,5.16,5.16,10.8,9.58,16.78,13.24,13.29,8.16,29,8.16,42.29,0,5.98-3.66,11.62-8.08,16.78-13.24,5.16-5.19,9.58-10.8,13.24-16.78,8.16-13.29,8.16-29,0-42.29h0Z"/>
      <path class="green-fill" d="M260.39,1189.65c-3.6,0-6.8-.62-9.55-1.87-2.75-1.3-4.88-3.06-6.41-5.3-1.5-2.27-2.24-4.82-2.24-7.68,0-.88.11-1.93.31-3.17l.57-2.49h7.88l-.57,2.49c-.2,1.02-.31,1.93-.31,2.66,0,2.58.91,4.59,2.66,6.09,1.84,1.5,4.34,2.24,7.54,2.24,3.54,0,6.43-.91,8.62-2.66,2.24-1.84,3.77-4.51,4.62-8.02l3.91-17.04h-19.53l1.45-6.77h27.38l-5.64,24.55c-1.25,5.53-3.63,9.72-7.14,12.61-3.51,2.89-8.05,4.37-13.55,4.37h0ZM323.57,1187.72h0l-.26,1.16h-7.51l-2.24-9.44h-21.32l-6.38,9.44h-8.53l.26-1.16,27.47-39.6h8.7l9.81,39.6ZM312.01,1172.67h0l-3.91-16.58-11.23,16.58h15.14ZM353.48,1148.12h0c6.32,0,11.2,1.47,14.68,4.42,3.51,2.89,5.27,6.92,5.27,12.05,0,1.59-.14,3.12-.43,4.59l-.14.82c-1.25,6.55-3.91,11.34-7.99,14.34-4.11,3.03-9.98,4.54-17.6,4.54h-21.06l9.07-40.76h18.2ZM348.04,1182.11h0c5.07,0,8.99-.99,11.74-3.03,2.78-2.07,4.56-5.33,5.41-9.75l.17-.99c.26-1.25.37-2.41.37-3.49,0-3.26-1.08-5.73-3.23-7.4-2.15-1.7-5.36-2.55-9.61-2.55h-11.2l-6.15,27.21h12.5ZM416.55,1148.12h0l-1.47,6.77h-27.64l-2.32,10.15h26.42l-1.5,6.75h-26.39l-2.35,10.32h27.64l-1.45,6.77h-35.52l9.07-40.76h35.52Z"/>
      <path class="cls-3" d="M308.07,1194.04c-1.98-.96-4.31-1.42-6.97-1.42h-24.58l-9.07,40.73h7.88l3.34-15.02h10.37l10.63,15.02h7.97l.23-1.16-9.75-13.86c4.48-.17,8.02-1.19,10.63-3.03,2.66-1.93,4.34-4.56,5.05-7.97l.17-.74c.2-1.13.31-2.07.31-2.86,0-2.15-.54-4.05-1.62-5.73-1.08-1.7-2.61-3-4.59-3.97h0ZM306.51,1204.11h0c0,.43-.06.88-.17,1.36l-.2.77c-.43,1.81-1.3,3.17-2.66,4.08-1.36.88-3.29,1.3-5.78,1.3h-17.57l2.78-12.22h17.35c1.98,0,3.51.43,4.59,1.3,1.11.82,1.67,1.96,1.67,3.4h0ZM325.56,1231.89h0c3.29,1.47,7.09,2.24,11.45,2.24,6.66,0,12.16-1.67,16.53-5.05,4.37-3.34,7.23-8.08,8.56-14.23l.2-.68c.37-1.62.54-3.17.54-4.71,0-3.46-.88-6.49-2.66-9.16-1.79-2.64-4.31-4.71-7.57-6.21-3.29-1.47-7.09-2.24-11.45-2.24-6.66,0-12.19,1.7-16.58,5.05-4.34,3.34-7.2,8.11-8.56,14.23l-.14.68c-.37,1.62-.54,3.17-.54,4.71,0,3.46.88,6.49,2.66,9.16,1.79,2.64,4.31,4.71,7.57,6.21h0ZM348.43,1223.81h0c-2.95,2.18-6.69,3.29-11.25,3.29s-7.85-.99-10.37-2.98c-2.49-1.98-3.71-4.68-3.71-8.02,0-1.08.14-2.27.48-3.6l.26-.88c.94-4.08,2.89-7.23,5.84-9.44,2.98-2.18,6.75-3.29,11.31-3.29s7.77.99,10.23,2.98c2.55,1.98,3.8,4.65,3.8,7.97,0,1.02-.17,2.24-.48,3.66l-.2.88c-.99,4.08-2.95,7.23-5.9,9.44h0ZM371.34,1226.61h0l7.65-33.99h-7.88l-9.07,40.73h36.65l1.42-6.75h-28.77ZM409.04,1226.61h0l7.63-33.99h-7.88l-9.07,40.73h36.65l1.45-6.75h-28.77Z"/>
      <path class="cls-3" d="M166.82,1186.59c4.11-2.07,8.19-4.65,11.37-10.03,4.76-8.05.11-14.66-9.61-8.82,5.7,1.47,2.07,2.21-.96,6.32-2.01,2.72-3.91,6.29-2.01,10.74-7.85-4.17-11.2-2.95-9.81-7.26,1.5-.23,3.15-.57,4.76-2.44,8.82-10.23-5.13-3.29-5.81-2.49-1.62,1.87-.82,2.49-.82,3.57-7.91-.43-7.31-4.99-2.01-7.09,1.93-.77,2.47-1.28,6.01-3.23-3.12-2.24-1.28-3.15,1.13-5.44.88-.82,1.73-1.62,2.55-2.32v-11.93h7.03v7.37c2.86-1.11,6.04-1.36,10.09-.6v-6.77h7.03v8.79c2.44.88,5.1,1.98,8.11,3.37-6.21,5.24,2.13,2.3,4.42,16.36-2.47-.65-3.15-.65-4.39.23-.28,2.07-.99,4.11-2.15,5.95-6.77,10.86-29.88,11.2-29.88,23.61,0,5.98,5.36,11.23,11.96,11.23,17.46,0,20.38-19.22,6.52-20.58,2.72,2.86-.2,5.67-.28,7.68-4.08-1.76-5.44,3.66-7.8,5.56-3.51-5.9,1.16-9.41-3.49-7.06-.03-2.38,2.75-4.71,4.79-5.84,14.4-8.28,26.65-.51,25.43,13.41.82.17,1.36.4,2.47.28-2.66,8.11-4.96,11.11-10.83,13.78-1.73.79-3.34,1.5-4.88,2.13v9.44h-7.03v-7.11c-3.4.77-6.55.77-10.09-.14v7.26h-7.03v-9.95c-.74-.37-1.53-.77-2.35-1.19-2.04-1.11-3.88-2.41-5.36-4.17-.85.28-1.7.6-2.47.88-4.11-5.33-3.46-13.52-1.39-18.74-1.11-.28-1.59-.54-3.03-.51,2.83-6.63,12.42-10.52,19.81-14.23h0Z"/>
    </g>
  </g>
</svg>