<svg width="55" height="50" viewBox="0 0 55 50" fill="none" xmlns="http://www.w3.org/2000/svg">
<path opacity="0.5" fill-rule="evenodd" clip-rule="evenodd" d="M27.5374 1.00015C27.6325 0.993394 27.9451 1.21631 28.4342 1.65538C28.8486 2.01339 29.4125 2.5065 29.6843 2.74967C29.9628 2.99285 30.4112 3.38464 30.6898 3.62106C31.1042 3.97907 31.2129 4.03987 31.3556 3.99934C31.4507 3.97907 31.8176 3.91152 32.1708 3.85748C32.5241 3.8102 33.2239 3.76291 33.7199 3.76291C34.3585 3.76291 34.8137 3.80344 35.3164 3.90477C35.6969 3.97907 36.3151 4.16821 36.6888 4.31682C37.0624 4.46543 37.5856 4.7086 37.8437 4.86397C38.1019 5.01257 38.4008 5.22198 38.5095 5.33006C38.6454 5.46515 38.693 5.58674 38.693 5.77588C38.693 5.91098 38.6522 6.08661 38.5979 6.16091C38.5503 6.23522 38.2242 6.47839 37.8709 6.69455C37.5176 6.91071 37.1643 7.13362 37.0828 7.1809C36.9945 7.23494 36.9266 7.32276 36.9266 7.3768C36.9266 7.43084 37.0081 7.49163 37.1168 7.5119C37.2187 7.53216 37.4225 7.5862 37.572 7.61997C37.7214 7.6605 38.0408 7.80236 38.2853 7.9307C38.5299 8.05904 38.8492 8.26169 38.9987 8.37653C39.1482 8.49136 39.4131 8.72103 39.9159 9.20063L41.0233 9.05202C41.6279 8.97096 42.3684 8.83586 42.6674 8.7548C42.9663 8.6805 43.5166 8.49136 43.8903 8.34275C44.2639 8.2009 44.8142 7.9307 45.1132 7.74832C45.4121 7.57269 45.8537 7.24845 46.0983 7.0323C46.3429 6.80938 46.6622 6.49866 46.8116 6.32978C46.9679 6.16091 47.2125 5.85694 47.3687 5.65429C47.525 5.45164 47.8035 4.96529 47.9938 4.5735C48.184 4.18172 48.3403 3.82371 48.3403 3.78318C48.3403 3.73589 48.4218 3.63457 48.5305 3.56027C48.6324 3.47921 48.7819 3.41841 48.8702 3.42517C48.9517 3.42517 49.108 3.47245 49.2235 3.52649C49.339 3.58053 49.4545 3.68861 49.4952 3.76291C49.536 3.83722 49.5632 4.03986 49.5632 4.22225C49.5632 4.39788 49.4884 4.9788 49.3933 5.51919C49.305 6.05959 49.1759 6.66753 49.1216 6.87018C49.0604 7.07283 48.9517 7.42408 48.8702 7.64699C48.7954 7.86991 48.6256 8.30898 48.4965 8.62646C48.3606 8.94394 48.1568 9.3695 48.0413 9.57215C47.9326 9.7748 47.7424 10.099 47.6201 10.2814C47.5046 10.4706 47.2532 10.8083 47.0562 11.0447C46.866 11.2744 46.7097 11.4905 46.7097 11.5311C46.7097 11.5716 46.9747 11.7405 47.3076 11.9094C47.6337 12.085 48.2044 12.4362 48.578 12.7064C48.9517 12.9699 49.5971 13.517 50.0116 13.9291C50.4192 14.3411 50.8948 14.8545 51.0578 15.0774C51.2277 15.3003 51.4858 15.6651 51.6353 15.888C51.7847 16.1109 52.0837 16.6446 52.2943 17.0701C52.5049 17.4957 52.7902 18.1644 52.9261 18.5562C53.062 18.948 53.1979 19.4073 53.2386 19.5897C53.2794 19.7923 53.2726 19.968 53.2318 20.0761C53.1911 20.1706 53.0552 20.2922 52.9125 20.353C52.7019 20.4408 52.4505 20.4543 51.547 20.4408C50.8404 20.4206 50.4464 20.4408 50.4464 20.4814C50.4532 20.5219 50.623 20.7313 50.8268 20.9542C51.0306 21.1771 51.4519 21.6905 51.7576 22.1025C52.0701 22.5146 52.4641 23.0752 52.634 23.3522C52.8106 23.6291 53.0892 24.1493 53.259 24.5005C53.4289 24.8518 53.6599 25.4327 53.7821 25.784C53.9316 26.223 53.986 26.4865 53.9588 26.6148C53.9316 26.7161 53.8365 26.8715 53.7414 26.9661C53.5987 27.1079 53.5172 27.1282 53.2862 27.1079C53.1231 27.0944 52.8582 27.0269 52.6883 26.9593C52.4641 26.8715 52.1856 26.8377 51.6353 26.8377C50.9559 26.831 50.854 26.8512 50.5483 27.0066C50.3648 27.1079 50.0591 27.3511 49.8825 27.547C49.5903 27.8712 49.5564 27.9388 49.5835 28.1482C49.6039 28.2765 49.7126 28.6548 49.8281 28.9926C49.9504 29.3303 50.1203 29.9788 50.2222 30.4449C50.358 31.1204 50.3988 31.4784 50.3988 32.2349C50.3988 32.9915 50.3648 33.3022 50.2425 33.7886C50.1542 34.1466 49.964 34.6397 49.7806 34.9909C49.5428 35.4435 49.3254 35.7205 48.9177 36.1258C48.6188 36.4162 48.1296 36.8418 47.8307 37.0647C47.5318 37.2876 46.9679 37.6321 46.5739 37.8348C46.1798 38.0306 45.6295 38.2671 45.351 38.3616C45.0724 38.4562 44.6104 38.5913 44.3319 38.6589C43.9446 38.7534 43.5778 38.7872 42.7693 38.7872C42.1918 38.7872 41.4784 38.7669 40.6632 38.6859V41.4892C40.6632 43.6913 40.6428 44.3127 40.5749 44.3803C40.5273 44.4208 40.3846 44.5019 40.2556 44.5559C40.0517 44.637 39.9838 44.637 39.78 44.5491C39.6509 44.5019 39.5014 44.3803 39.4607 44.2925C39.3995 44.1709 39.3723 43.5697 39.3723 42.1174C39.3723 40.8204 39.3452 40.1044 39.3044 40.1044C39.2704 40.1044 39.1549 40.2057 39.0598 40.3273C38.9579 40.4422 38.6726 40.7529 38.428 41.0163C38.1766 41.2798 37.7554 41.6715 37.4972 41.8945C37.2391 42.1241 36.8586 42.4213 36.6548 42.57C36.451 42.7186 36.2608 42.8672 36.2336 42.9077C36.2064 42.9415 36.1792 44.0763 36.1792 45.4273C36.1792 46.9201 36.1521 47.9266 36.1113 48.0077C36.0773 48.082 35.955 48.1901 35.8395 48.2441C35.724 48.2981 35.5542 48.3454 35.4523 48.3454C35.3436 48.3387 35.1737 48.2644 34.8544 48.0077V45.8866C34.8544 44.718 34.834 43.7453 34.8069 43.725C34.7729 43.7048 34.5487 43.7791 34.2973 43.8939C34.0392 44.0155 33.5636 44.2114 33.2239 44.3397C32.891 44.4681 32.2931 44.664 31.8991 44.7721C31.5051 44.8801 31.1654 45.0085 31.1382 45.0558C31.111 45.0963 31.0838 46.123 31.0838 47.3322C31.0906 49.4938 31.0838 49.5275 30.9412 49.6626C30.8528 49.7437 30.6762 49.8045 30.4792 49.8247C30.2414 49.8383 30.1259 49.8112 29.827 49.5748L29.759 45.2719L29.5892 45.2787C29.4941 45.2854 29.1136 45.326 28.7399 45.3665C28.3663 45.407 27.7073 45.4408 27.2793 45.4408C26.8513 45.4408 26.2262 45.407 25.8865 45.3665C25.3974 45.3125 25.2683 45.3125 25.2275 45.3868C25.2003 45.434 25.1732 46.3662 25.1732 47.4538C25.1732 48.8926 25.1528 49.4735 25.0916 49.5951C25.0305 49.7167 24.9286 49.7775 24.7655 49.8045C24.6364 49.8315 24.4394 49.8315 24.3239 49.8112C24.2084 49.7842 24.0726 49.7167 24.0182 49.6559C23.9367 49.5613 23.9095 49.1628 23.8484 45.076L23.6106 45.0152C23.4815 44.9815 23.1146 44.8801 22.7953 44.7856C22.476 44.6978 21.8985 44.4951 21.5045 44.3465C21.1104 44.1979 20.6892 44.0155 20.5737 43.948C20.4514 43.8804 20.302 43.8196 20.2476 43.8196C20.1933 43.8196 20.1321 43.8737 20.1185 43.9412C20.1049 44.002 20.0846 44.9544 20.0778 46.0487C20.071 47.447 20.0438 48.0617 19.9826 48.1157C19.9419 48.1563 19.84 48.2238 19.7584 48.2644C19.6701 48.3116 19.5275 48.3454 19.4323 48.3454C19.3372 48.3454 19.1742 48.2914 19.0587 48.2306C18.95 48.163 18.8413 48.0482 18.8209 47.9739C18.8073 47.8996 18.7869 46.7513 18.7869 45.4273C18.7869 43.2049 18.7801 43.0023 18.6714 42.9145C18.6035 42.8604 18.291 42.624 17.9717 42.3876C17.6524 42.1579 17.1156 41.6918 16.7759 41.3541C16.4362 41.0231 16.0694 40.611 15.9607 40.4489C15.852 40.28 15.7229 40.1382 15.6821 40.1247C15.6142 40.1112 15.5938 40.5502 15.5938 44.2249L15.4104 44.3938C15.3017 44.4884 15.1998 44.5694 15.1726 44.5627C15.1386 44.5627 15.125 44.4884 15.1386 44.4005C15.1522 44.2654 15.1182 44.2317 14.962 44.2114C14.7989 44.1911 14.7718 44.2114 14.7921 44.3465C14.8057 44.4343 14.7718 44.5289 14.7242 44.5491C14.6766 44.5762 14.5679 44.5289 14.4864 44.4411C14.3369 44.2925 14.3369 44.2587 14.269 38.7196L13.9633 38.7399C13.7934 38.7534 13.1073 38.7669 12.4347 38.7737C11.4428 38.7872 11.1099 38.7602 10.6683 38.6589C10.3693 38.5913 9.89375 38.4562 9.6152 38.3684C9.33665 38.2738 8.8475 38.0712 8.52818 37.9158C8.20887 37.7604 7.76727 37.5105 7.54307 37.3552C7.31888 37.2065 6.95201 36.9296 6.72781 36.7472C6.50361 36.5581 6.17071 36.2609 5.98728 36.0785C5.80384 35.8961 5.54568 35.5786 5.4098 35.376C5.27392 35.1733 5.10407 34.8829 5.03614 34.7342C4.9682 34.5856 4.87308 34.3425 4.82553 34.1938C4.77797 34.0452 4.69644 33.7548 4.64889 33.5521C4.59453 33.3292 4.56056 32.7821 4.56736 32.1674C4.56736 31.4108 4.60812 30.992 4.71003 30.5124C4.78476 30.1612 4.92743 29.614 5.01575 29.2965C5.11087 28.979 5.23995 28.6075 5.2943 28.4724C5.35545 28.3306 5.403 28.1347 5.403 28.0334C5.403 27.8915 5.2943 27.7361 4.9614 27.4254C4.60812 27.0809 4.44507 26.9796 4.13255 26.8918C3.84041 26.8107 3.59584 26.7905 3.195 26.8175C2.89607 26.8445 2.59034 26.8715 2.51561 26.8918C2.44088 26.9053 2.25744 26.9661 2.10798 27.0269C1.95851 27.0877 1.73432 27.135 1.61882 27.135C1.48294 27.135 1.32668 27.0742 1.22477 26.9863C1.12966 26.8985 1.03455 26.7229 1.00737 26.5946C0.980196 26.4324 1.02775 26.1825 1.15684 25.784C1.25874 25.4665 1.52371 24.8518 1.74111 24.4195C1.96531 23.9804 2.25744 23.4468 2.39332 23.2374C2.5292 23.0212 2.79416 22.6362 2.98439 22.3727C3.17462 22.1093 3.48034 21.7175 3.66377 21.4946C3.854 21.2717 4.12576 20.961 4.28202 20.8056C4.43148 20.6435 4.5266 20.4949 4.49942 20.4678C4.46545 20.4341 3.90156 20.4206 3.24255 20.4341C2.06721 20.4543 2.03325 20.4476 1.88378 20.299C1.80225 20.2112 1.71393 20.049 1.69355 19.941C1.66638 19.8059 1.73432 19.4681 1.90416 18.9277C2.04004 18.4819 2.33218 17.7524 2.54958 17.3065C2.76698 16.8607 3.07271 16.2865 3.23576 16.0231C3.39202 15.7597 3.72492 15.2936 3.97629 14.9761C4.22767 14.6586 4.72362 14.125 5.0701 13.794C5.42339 13.4562 5.89216 13.0442 6.11636 12.8753C6.34056 12.7064 6.72102 12.4497 6.96559 12.2944C7.21017 12.1458 7.59742 11.9296 7.83521 11.808C8.0662 11.6932 8.25643 11.5716 8.25643 11.5311C8.25643 11.4905 8.07979 11.2406 7.85559 10.9772C7.63819 10.707 7.2917 10.1936 7.08109 9.84235C6.87727 9.49109 6.64628 9.06553 6.57155 8.89666C6.49682 8.72778 6.36773 8.42381 6.28621 8.22116C6.20468 8.01852 6.08239 7.68077 6.01445 7.47812C5.94651 7.27547 5.84461 6.91071 5.78346 6.66753C5.72911 6.42435 5.61361 5.87045 5.53888 5.43813C5.46415 4.99906 5.403 4.45867 5.403 4.23576C5.403 4.01285 5.42339 3.78318 5.45736 3.72238C5.48453 3.66159 5.58644 3.56702 5.69514 3.51974C5.79705 3.4657 5.98048 3.42517 6.10277 3.42517C6.23865 3.42517 6.37453 3.47921 6.46964 3.57378C6.55117 3.66159 6.70063 3.9453 6.79575 4.20198C6.89766 4.46543 7.09468 4.87072 7.23735 5.1139C7.38002 5.35708 7.67216 5.78264 7.89635 6.05959C8.11376 6.33654 8.5078 6.74859 8.76597 6.96475C9.03093 7.18766 9.45894 7.50514 9.71711 7.66726C9.97528 7.83613 10.4101 8.07255 10.6683 8.19414C10.9264 8.30898 11.402 8.49136 11.7213 8.59268C12.0406 8.68725 12.6181 8.82911 13.0121 8.89666C13.4062 8.9642 14.0448 9.05877 14.4389 9.0993C15.1522 9.17361 15.1522 9.17361 15.2541 9.01824C15.3085 8.93043 15.4443 8.77507 15.5598 8.67374C15.6685 8.57242 15.9675 8.34951 16.2256 8.18063C16.477 8.01852 16.7012 7.88342 16.7352 7.88342C16.7624 7.88342 16.939 7.80911 17.1224 7.7213C17.3127 7.63348 17.5844 7.53216 17.7339 7.49839C17.8901 7.46461 18.0056 7.40382 18.0056 7.34978C18.0056 7.29574 17.9445 7.22143 17.8698 7.1809C17.795 7.14038 17.4349 6.91746 17.0749 6.6878C16.708 6.45137 16.3819 6.20144 16.3411 6.12714C16.3072 6.05283 16.2732 5.87045 16.2732 5.72184C16.2732 5.49893 16.314 5.41787 16.5042 5.26926C16.6333 5.16118 16.9594 4.95178 17.2379 4.79642C17.5097 4.6343 18.0124 4.40463 18.3453 4.27629C18.685 4.14794 19.2761 3.97907 19.6701 3.89801C20.302 3.76291 20.5194 3.75616 21.6064 3.78318C22.2926 3.8102 23.0399 3.87099 23.3049 3.92503C23.563 3.97907 23.8144 4.00609 23.8552 3.97907C23.8959 3.95205 24.65 3.29682 25.54 2.51325C26.43 1.72968 27.2045 1.07445 27.2657 1.04743C27.3268 1.02041 27.4491 1.00015 27.5374 1.00015V1.00015ZM26.464 3.49947C26.07 3.85073 25.5944 4.26278 25.4109 4.41814L25.0713 4.70185C25.3906 4.97204 25.8933 5.37734 26.3961 5.77588C26.8988 6.17442 27.354 6.52568 27.4016 6.5527C27.4491 6.57972 27.7956 6.3568 28.2848 5.97853C28.7196 5.64078 29.2427 5.23549 29.4329 5.08688C29.6299 4.93151 29.793 4.76264 29.793 4.7086C29.793 4.65456 29.331 4.21549 28.7671 3.72914C28.2032 3.24278 27.7141 2.79696 27.6801 2.73616C27.6461 2.66862 27.5578 2.61458 27.4831 2.61458C27.4151 2.61458 27.3132 2.66862 27.2657 2.74292C27.2181 2.81047 26.858 3.14821 26.464 3.49947ZM18.8549 5.50568C18.522 5.62727 18.3385 5.73535 18.3317 5.80966C18.3181 5.88621 18.4087 5.97177 18.6035 6.06634C18.7598 6.1474 18.9772 6.27574 19.0927 6.36356C19.2081 6.44462 19.6022 6.6878 19.9759 6.90395C20.3495 7.12011 20.7639 7.40382 20.893 7.53216C21.1172 7.74832 21.1308 7.78209 21.0833 8.07931C21.0561 8.26845 20.9881 8.43732 20.8998 8.51163C20.7775 8.60619 20.6213 8.62646 19.8264 8.6197C19.2965 8.61295 18.7122 8.64672 18.4812 8.69401C18.257 8.74129 17.7611 8.92368 17.3806 9.10606C16.8846 9.34248 16.6808 9.47082 16.6808 9.55864C16.6808 9.63294 16.8167 9.73427 17.102 9.86261C17.3398 9.96393 17.7882 10.2004 18.1075 10.3895C18.4269 10.5719 18.8481 10.8556 19.0519 11.0109C19.2557 11.1663 19.6362 11.5041 19.9011 11.7675C20.1661 12.0309 20.5737 12.47 20.7979 12.747C21.0289 13.0239 21.3754 13.4968 21.5724 13.794C21.7762 14.0912 22.0752 14.6113 22.2518 14.9423C22.4216 15.2733 22.6934 15.8677 22.8497 16.2595C23.0059 16.6513 23.135 17.0769 23.135 17.2052C23.135 17.3471 23.0739 17.5159 22.9787 17.6308C22.87 17.7794 22.7545 17.8334 22.5236 17.8604L22.2178 17.8942C22.1499 18.7453 22.048 19.252 21.9461 19.5694C21.8442 19.8869 21.6879 20.2652 21.6132 20.4138C21.5317 20.5624 21.3754 20.8191 21.2735 20.988C21.1648 21.1568 20.8115 21.5486 20.4854 21.8661C20.1661 22.1836 19.7313 22.5416 19.5275 22.6564C19.3236 22.778 18.9296 22.9739 18.6511 23.082C18.3521 23.2036 17.8426 23.3387 17.4282 23.3995C16.8371 23.494 16.5857 23.5008 15.9675 23.44C15.5598 23.3995 15.0707 23.3184 14.8805 23.2509C14.697 23.1901 14.3234 23.0415 14.0652 22.9266C13.807 22.8118 13.4673 22.6294 13.3179 22.5213C13.1684 22.4133 12.9238 22.2174 12.7744 22.0755C12.6249 21.9404 12.3463 21.6432 12.1561 21.427C11.9659 21.2041 11.7009 20.8259 11.565 20.5827C11.436 20.3395 11.2593 19.9545 11.1846 19.7248C11.1031 19.4884 10.9944 19.0628 10.94 18.7791C10.8857 18.4886 10.8381 18.0631 10.8381 17.8334C10.8381 17.597 10.8992 17.0971 10.974 16.7189C11.0759 16.2257 11.2118 15.8272 11.4428 15.3476C11.6398 14.9423 11.9115 14.5168 12.1221 14.2871C12.3124 14.0709 12.4686 13.848 12.4686 13.794C12.4686 13.7264 12.3803 13.6791 12.2173 13.6521C12.0746 13.6319 11.7145 13.5373 11.4156 13.4427C11.1166 13.3482 10.7022 13.1995 10.4984 13.105C10.2946 13.0104 9.99566 12.8483 9.8394 12.7402C9.67635 12.6321 9.49971 12.5443 9.44536 12.5443C9.39101 12.5443 8.99696 12.7199 8.58254 12.9361C8.16132 13.1523 7.58384 13.4968 7.29849 13.6994C7.01315 13.9021 6.57155 14.2466 6.32018 14.4695C6.0688 14.6924 5.64758 15.1179 5.38942 15.4152C5.12446 15.7124 4.75079 16.1987 4.55377 16.4959C4.35675 16.7932 4.08499 17.2322 3.95591 17.4754C3.82683 17.7186 3.62301 18.1644 3.49393 18.4684C3.33767 18.8399 3.28332 19.0493 3.33087 19.0966C3.37843 19.1371 3.68416 19.1371 4.21408 19.0898C4.66247 19.0561 5.30789 18.9615 5.64079 18.8872C5.98728 18.8129 6.44926 18.6575 6.71422 18.5224C6.96559 18.3941 7.23056 18.286 7.30529 18.286C7.38002 18.286 7.50231 18.313 7.57704 18.3536C7.65178 18.3941 7.76048 18.5157 7.81483 18.6237C7.86918 18.7318 7.91674 18.9277 7.91674 19.0493C7.90994 19.2114 7.8488 19.3263 7.65178 19.5019C7.5091 19.6302 7.27811 19.8329 7.12865 19.9545C6.98598 20.0761 6.57155 20.4543 6.21147 20.7988C5.84461 21.1433 5.36224 21.6364 5.13125 21.8999C4.89346 22.1633 4.49942 22.6497 4.24805 22.9807C3.99667 23.3117 3.57545 23.9534 3.3037 24.3992C3.03874 24.845 2.82133 25.2638 2.82133 25.3314C2.82133 25.426 2.88927 25.4462 3.26294 25.4462C3.50752 25.4462 3.92873 25.4868 4.20049 25.5408C4.46545 25.5881 4.87308 25.7232 5.09728 25.838C5.32148 25.9528 5.61361 26.1487 5.7427 26.2838C5.87178 26.4189 6.01445 26.527 6.04842 26.5338C6.08919 26.5338 6.34056 26.1285 6.61231 25.6354C6.89086 25.1422 7.33246 24.3992 7.59742 23.9939C7.86239 23.5819 8.14093 23.1766 8.21567 23.0955C8.29719 23.0077 8.43986 22.8929 8.54857 22.8388C8.68444 22.7713 8.79315 22.7645 8.9562 22.8118C9.07169 22.8456 9.23475 22.9401 9.30948 23.0212C9.43856 23.1563 9.44536 23.1968 9.35704 24.3519C9.31627 25.0139 9.27551 25.8988 9.27551 26.3244C9.27551 26.7499 9.32307 27.4795 9.37742 27.9455C9.43177 28.4116 9.55406 29.0601 9.64917 29.3979C9.75108 29.7356 9.94131 30.2152 10.0772 30.4786C10.2131 30.7421 10.4644 31.0866 10.6343 31.2555C10.8041 31.4243 11.1099 31.6405 11.3137 31.7418C11.5175 31.8364 11.8572 31.9377 12.061 31.9647C12.3192 31.9985 12.5705 31.9782 12.8763 31.9039C13.1208 31.8431 13.5013 31.708 13.7255 31.6067C13.9497 31.4986 14.3301 31.2825 14.5747 31.1204C14.8193 30.9582 15.1522 30.7151 15.3221 30.5867C15.4919 30.4516 15.9471 30.0733 16.3411 29.7356C16.7352 29.4046 17.2107 28.9926 17.3942 28.8169C17.5844 28.6481 18.0872 28.1887 18.5152 27.8037C18.9432 27.4187 19.4935 26.9728 19.7381 26.8175C19.9826 26.6621 20.533 26.3514 20.961 26.1352C21.6336 25.7907 21.7423 25.7097 21.7355 25.5746C21.7287 25.4868 21.6879 25.1422 21.6336 24.8045C21.5656 24.3181 21.5588 24.0952 21.6268 23.6764C21.6879 23.2779 21.7694 23.055 21.9461 22.778C22.0887 22.5484 22.3129 22.3254 22.51 22.2039C22.6866 22.089 22.9991 21.9472 23.2029 21.8864C23.4611 21.8121 23.7532 21.7918 24.1541 21.8121C24.5889 21.8323 24.8131 21.8796 25.0645 22.008C25.2411 22.0958 25.4993 22.2917 25.6351 22.4403C25.771 22.5889 25.9477 22.8658 26.036 23.0482C26.1175 23.2374 26.2398 23.6291 26.2942 23.9264C26.3553 24.2236 26.4096 24.4735 26.4164 24.4803C26.4232 24.487 26.9056 24.4938 27.4831 24.5073C28.3255 24.514 28.5429 24.5005 28.5769 24.4262C28.6041 24.3722 28.6584 24.102 28.706 23.825C28.7535 23.5008 28.8622 23.1766 28.9981 22.9199C29.1204 22.697 29.3514 22.3997 29.5212 22.2579C29.7115 22.0958 29.9696 21.9539 30.2006 21.8864C30.4588 21.8121 30.7509 21.7918 31.1518 21.8121C31.5934 21.8323 31.8176 21.8796 32.1029 22.0147C32.3067 22.116 32.5445 22.2579 32.6328 22.3322C32.7144 22.4133 32.7823 22.4943 32.7823 22.5281C32.7823 22.5551 32.8434 22.6159 32.9182 22.6632C32.9929 22.7037 33.1152 22.9131 33.1899 23.1158C33.2647 23.3184 33.3462 23.7102 33.3666 23.9804C33.4005 24.3181 33.3734 24.6559 33.2918 25.0747C33.2307 25.4124 33.2035 25.7029 33.2375 25.7232C33.2647 25.7502 33.6315 25.9461 34.0392 26.1555C34.4468 26.3716 34.9835 26.6689 35.2281 26.831C35.4727 26.9863 35.8735 27.2971 36.1249 27.5132C36.3695 27.7361 37.0556 28.3576 37.6535 28.898C38.2446 29.4451 38.9851 30.0936 39.3044 30.3435C39.6237 30.5935 40.1129 30.9515 40.3914 31.1406C40.67 31.3298 41.0708 31.5527 41.2746 31.6472C41.4784 31.7351 41.8453 31.8499 42.0899 31.9107C42.3617 31.9715 42.6674 31.9917 42.8712 31.9715C43.0614 31.9445 43.3943 31.8431 43.6185 31.7351C43.8835 31.6135 44.1552 31.4041 44.3998 31.1474C44.6308 30.8974 44.855 30.5597 45.0045 30.2422C45.1268 29.9653 45.3034 29.4654 45.3849 29.1277C45.4732 28.7899 45.5752 28.1685 45.6159 27.7429C45.6567 27.3173 45.6906 26.6148 45.6906 26.1893C45.6906 25.7637 45.6567 25.0139 45.6159 24.5343C45.5752 24.0547 45.5412 23.5346 45.5412 23.386C45.5412 23.1766 45.5819 23.082 45.7178 22.9672C45.8333 22.8658 45.9828 22.8118 46.1526 22.8118C46.2885 22.8118 46.4651 22.8523 46.5399 22.8996C46.6146 22.9537 46.8796 23.2914 47.1242 23.6629C47.3687 24.0277 47.7628 24.6491 48.0006 25.0409C48.2383 25.4327 48.5033 25.9123 48.5916 26.1082C48.68 26.2973 48.7954 26.4797 48.8566 26.5135C48.9313 26.5473 49.0061 26.5 49.1148 26.3581C49.1963 26.2501 49.4477 26.0542 49.6719 25.9326C49.8893 25.811 50.3309 25.6489 50.6502 25.5746C51.017 25.4868 51.3839 25.4395 51.6693 25.4597C52.0429 25.48 52.1109 25.4665 52.1244 25.3652C52.138 25.2976 52.0157 25.0072 51.8595 24.7234C51.7032 24.433 51.4247 23.9669 51.2344 23.6899C51.051 23.413 50.6638 22.8929 50.3852 22.5416C50.0999 22.1903 49.502 21.5351 49.0536 21.0893C48.6052 20.6367 47.987 20.0625 47.6745 19.8059C47.3687 19.5424 47.097 19.2925 47.0834 19.252C47.063 19.2047 47.0494 19.0898 47.0494 18.9953C47.0494 18.9007 47.097 18.7318 47.1513 18.6237C47.2057 18.5157 47.3348 18.3806 47.4435 18.3265C47.5861 18.259 47.6745 18.2522 47.8307 18.313C47.9462 18.3536 48.1093 18.4414 48.2044 18.5022C48.2995 18.563 48.4965 18.6575 48.646 18.7183C48.7954 18.7724 49.1623 18.8669 49.4612 18.921C49.7602 18.975 50.195 19.0426 50.4328 19.0628C50.6638 19.0831 51.0442 19.1169 51.282 19.1371L51.7032 19.1777C51.6217 18.8534 51.4994 18.5359 51.3703 18.2725C51.248 18.0023 51.0714 17.6308 50.9831 17.4416C50.8948 17.2593 50.6502 16.854 50.4464 16.55C50.2425 16.246 49.8417 15.7326 49.5632 15.4084C49.2846 15.0842 48.7615 14.5775 48.4082 14.2871C48.0549 13.9899 47.6133 13.6521 47.4231 13.5238C47.2396 13.4022 46.7573 13.132 46.3565 12.9226C45.9488 12.7132 45.5684 12.5443 45.5072 12.5443C45.4393 12.5443 45.2762 12.6186 45.1471 12.7199C45.0181 12.8145 44.7395 12.9699 44.5357 13.0644C44.3319 13.159 43.9446 13.3076 43.6865 13.4022C43.4283 13.4968 43.0478 13.5913 42.844 13.6116C42.6402 13.6386 42.4636 13.6859 42.45 13.7264C42.4364 13.767 42.5655 13.9628 42.7353 14.1655C42.912 14.3681 43.1497 14.7059 43.272 14.9085C43.3875 15.1112 43.571 15.4624 43.6661 15.6854C43.768 15.9083 43.9039 16.3473 43.9718 16.6648C44.0533 17.0476 44.0918 17.4867 44.0873 17.982C44.0805 18.5022 44.0329 18.8872 43.931 19.2655C43.8495 19.5627 43.6457 20.0828 43.4826 20.4138C43.3128 20.7448 43.0207 21.2041 42.8236 21.4338C42.6266 21.6567 42.2462 22.0147 41.988 22.2309C41.7298 22.4538 41.3154 22.724 41.0708 22.8456C40.8262 22.9672 40.4458 23.1225 40.2216 23.2036C39.9974 23.2779 39.5082 23.3792 39.1346 23.4197C38.7405 23.467 38.2378 23.4805 37.9456 23.4535C37.6671 23.4265 37.2051 23.3522 36.9266 23.2779C36.648 23.2103 36.1589 23.0212 35.8463 22.8658C35.5338 22.7037 35.0922 22.42 34.8612 22.2309C34.637 22.0417 34.2769 21.677 34.0663 21.4203C33.8557 21.1636 33.5908 20.7853 33.4753 20.5827C33.3598 20.38 33.1695 19.9274 33.0541 19.5897C32.9454 19.2452 32.8299 18.7183 32.8027 18.4211L32.7483 17.8875C32.3271 17.8199 32.1369 17.7591 32.0554 17.7051C31.967 17.651 31.8787 17.5159 31.8583 17.3944C31.8312 17.2593 31.8719 17.0026 31.9534 16.7324C32.0282 16.4892 32.1912 16.0636 32.3067 15.7867C32.4222 15.5097 32.6464 15.0504 32.7959 14.7734C32.9521 14.4965 33.2103 14.0574 33.3802 13.794C33.55 13.5305 33.9101 13.0442 34.1818 12.7132C34.4468 12.3822 34.8612 11.9229 35.099 11.7067C35.3368 11.4838 35.7512 11.146 36.0094 10.9569C36.2676 10.761 36.682 10.4841 36.9266 10.3422C37.1711 10.1936 37.572 9.9842 37.8301 9.87612C38.1427 9.73427 38.2853 9.6397 38.2853 9.55864C38.2853 9.47758 38.0951 9.34248 37.6943 9.13983C37.3614 8.97771 36.879 8.78858 36.6208 8.72103C36.2811 8.63997 35.8599 8.59944 35.1466 8.59944C34.6031 8.59268 34.1411 8.57917 34.1275 8.55891C34.1071 8.53864 34.046 8.45083 33.9848 8.35626C33.9169 8.26169 33.8693 8.09282 33.8693 7.98474C33.8761 7.87666 33.9101 7.71454 33.9576 7.63348C34.0052 7.55243 34.5419 7.17415 35.1602 6.79587C35.7784 6.4176 36.3627 6.05959 36.4714 5.99879C36.5733 5.938 36.648 5.84343 36.6412 5.78939C36.6276 5.73535 36.3898 5.60701 36.1113 5.50568C35.8327 5.40436 35.3096 5.25575 34.9563 5.17469C34.406 5.04635 34.1886 5.03284 33.4617 5.06661C32.9929 5.08688 32.4154 5.14092 32.1708 5.18145C31.9263 5.22198 31.6409 5.26926 31.5254 5.28277C31.3963 5.30304 31.0431 5.5327 30.5403 5.93124C30.1123 6.27574 29.5552 6.70806 29.3106 6.8972C29.0661 7.08634 28.6516 7.41057 28.3935 7.61997C28.1353 7.82938 27.8567 8.03203 27.7752 8.07256C27.6869 8.11984 27.5374 8.15361 27.4355 8.15361C27.2996 8.15361 26.9939 7.95097 26.3281 7.42408C25.8186 7.02554 25.1935 6.53243 24.9422 6.32978C24.684 6.12714 24.2832 5.81641 24.059 5.63403C23.828 5.4584 23.5562 5.30304 23.4407 5.28277C23.3252 5.26926 22.9108 5.20847 22.51 5.15443C22.1023 5.09363 21.4773 5.04635 21.1172 5.0531C20.7232 5.0531 20.2272 5.1139 19.9079 5.1882C19.609 5.25575 19.1334 5.39761 18.8549 5.50568V5.50568ZM7.98467 8.69401C8.20887 9.11957 8.53498 9.65321 8.69803 9.87612C8.86788 10.099 9.1804 10.457 9.3978 10.68C9.60841 10.8961 9.94131 11.1866 10.1247 11.3284C10.315 11.4635 10.6343 11.6729 10.8381 11.7878C11.0419 11.9026 11.4292 12.058 11.6873 12.139C11.9455 12.2133 12.3939 12.3282 12.6724 12.3822C12.951 12.4362 13.576 12.5241 14.0652 12.5848C14.5543 12.6389 15.3288 12.7605 15.7976 12.8483C16.2664 12.9429 16.939 13.105 17.2923 13.2198C17.6456 13.3346 18.291 13.5981 18.719 13.8007C19.147 14.0034 19.6565 14.2668 19.84 14.3817C20.0302 14.5032 20.234 14.6451 20.3088 14.6991C20.3767 14.7599 20.4786 14.814 20.5262 14.8275C20.5805 14.8342 20.6213 14.8005 20.6213 14.7599C20.6213 14.7126 20.3767 14.3546 20.0846 13.9628C19.7924 13.5711 19.2965 13.0104 18.9839 12.7199C18.6714 12.4295 18.1959 12.0377 17.9377 11.8553C17.6795 11.6662 17.2243 11.4027 16.939 11.2541C16.6469 11.1123 16.246 10.9299 16.0558 10.8556C15.8588 10.7813 15.4647 10.6664 15.1862 10.5921C14.9076 10.5178 14.4592 10.4435 14.2011 10.4165C13.9429 10.3962 13.2975 10.2949 12.7744 10.2004C12.2512 10.1058 11.5039 9.9234 11.1099 9.79506C10.7158 9.66672 10.1519 9.43705 9.85299 9.28844C9.55406 9.13983 9.0649 8.85613 8.76597 8.66023C8.46704 8.46434 8.10017 8.17388 7.95071 8.02527C7.80124 7.86991 7.65857 7.74832 7.63139 7.74832C7.59742 7.74832 7.57704 7.78885 7.57704 7.83613C7.57704 7.87666 7.76727 8.26845 7.98467 8.69401V8.69401ZM46.1662 8.67374C45.8877 8.86288 45.4732 9.10606 45.249 9.21414C45.0248 9.32222 44.5968 9.5046 44.2979 9.61943C43.999 9.73427 43.537 9.88963 43.2788 9.97069C43.0207 10.045 42.4364 10.1733 41.988 10.2476C41.5396 10.3219 41.064 10.3827 40.9349 10.3827C40.8059 10.3827 40.3778 10.457 39.9838 10.5516C39.5898 10.6462 39.121 10.7813 38.9307 10.8556C38.7473 10.9231 38.3465 11.1055 38.0475 11.2474C37.7486 11.396 37.3206 11.6527 37.0964 11.8148C36.8722 11.9769 36.417 12.3687 36.0841 12.6862C35.7512 12.9969 35.3232 13.4495 35.1262 13.6927C34.936 13.9358 34.6846 14.2601 34.5759 14.4222C34.4672 14.5775 34.3992 14.7329 34.4332 14.7599C34.4604 14.7869 34.6438 14.6924 34.8408 14.5573C35.0311 14.4222 35.5338 14.152 35.9414 13.9493C36.3491 13.7534 36.8586 13.5238 37.0624 13.4427C37.2662 13.3617 37.7554 13.2063 38.1495 13.0915C38.5435 12.9834 39.2772 12.8348 39.78 12.7537C40.2827 12.6794 41.1252 12.5511 41.6483 12.4768C42.1714 12.4025 42.8168 12.2741 43.075 12.1998C43.3332 12.1188 43.8223 11.9161 44.162 11.7472C44.6648 11.4905 44.8958 11.3149 45.4597 10.7543C45.8333 10.3827 46.2817 9.86936 46.4516 9.60592C46.6214 9.34248 46.9068 8.84937 47.0766 8.51163C47.2464 8.16712 47.3891 7.86991 47.3891 7.84964C47.3891 7.82938 47.3551 7.81587 47.3212 7.81587C47.2804 7.81587 47.1242 7.9307 46.9611 8.07931C46.8048 8.22116 46.4448 8.49136 46.1662 8.67374V8.67374ZM13.6643 14.6451C13.4809 14.8072 13.2092 15.1112 13.0529 15.3138C12.9034 15.5165 12.686 15.8948 12.5637 16.1582C12.4482 16.4216 12.3124 16.8269 12.2716 17.0701C12.2308 17.3133 12.1969 17.7051 12.1969 17.9483C12.1969 18.1914 12.2444 18.5697 12.3056 18.7926C12.3599 19.0155 12.5298 19.4478 12.6792 19.7586C12.8627 20.1368 13.0801 20.4543 13.379 20.7718C13.6168 21.0217 14.0312 21.3527 14.2962 21.5149C14.5611 21.6702 14.9688 21.8661 15.2066 21.9472C15.5598 22.0688 15.7704 22.0958 16.511 22.089C17.1904 22.089 17.4893 22.0552 17.8018 21.9539C18.026 21.8864 18.4065 21.7175 18.6511 21.5824C18.9228 21.4338 19.2897 21.1366 19.609 20.8123C19.9623 20.4408 20.1933 20.1233 20.3699 19.7721C20.5058 19.4951 20.6688 19.0696 20.7368 18.8264C20.8047 18.5562 20.8523 18.1374 20.8455 17.7456C20.8455 17.3741 20.8047 16.9891 20.7504 16.8337C20.6688 16.6175 20.5397 16.4892 20.0098 16.1109C19.6565 15.861 19.181 15.557 18.9568 15.4354C18.7326 15.3138 18.3793 15.1315 18.1755 15.0301C17.9717 14.9288 17.4485 14.7262 17.0205 14.5708C16.5925 14.4222 15.9471 14.2398 15.5938 14.1655C15.2405 14.0979 14.8737 14.0236 14.7785 13.9966C14.6563 13.9696 14.5204 14.0101 14.303 14.152C14.1331 14.2601 13.8478 14.483 13.6643 14.6451V14.6451ZM38.0136 14.537C37.6195 14.6654 36.9809 14.9356 36.5869 15.1315C36.1928 15.3273 35.5542 15.6989 35.1669 15.9623C34.7797 16.219 34.406 16.5027 34.3381 16.5973C34.2769 16.6918 34.1818 16.9958 34.1411 17.2728C34.0935 17.5767 34.0799 17.9685 34.1071 18.2522C34.1343 18.5157 34.243 18.9682 34.3517 19.2655C34.4672 19.5627 34.6846 20.0018 34.8476 20.2449C35.0107 20.4881 35.3232 20.8461 35.5406 21.042C35.7716 21.2447 36.1996 21.5284 36.5529 21.6972C36.9741 21.8999 37.3274 22.0215 37.6739 22.0755C37.9524 22.116 38.428 22.1363 38.7269 22.116C39.0259 22.1025 39.4878 22.0215 39.746 21.9472C40.0246 21.8661 40.4322 21.6702 40.7311 21.4743C41.0097 21.2919 41.4105 20.9542 41.6143 20.7313C41.8181 20.5084 42.1035 20.1166 42.2394 19.8599C42.3752 19.61 42.5519 19.1574 42.6334 18.8602C42.7149 18.5427 42.7693 18.1171 42.7693 17.8132C42.7625 17.5362 42.7217 17.1377 42.6742 16.935C42.6198 16.7324 42.5111 16.3946 42.4296 16.192C42.3481 15.9893 42.1782 15.6718 42.0559 15.4827C41.9336 15.3003 41.6483 14.9761 41.4309 14.7667C41.2135 14.564 40.9146 14.3141 40.7651 14.2195C40.6156 14.125 40.4322 14.0304 40.3575 14.0101C40.2827 13.9966 39.8819 14.0507 39.4743 14.1385C39.0666 14.2263 38.4076 14.4087 38.0136 14.537V14.537ZM23.3252 23.2914C23.2165 23.3657 23.0874 23.5143 23.0331 23.6224C22.9787 23.7305 22.9312 24.0007 22.9312 24.2168C22.9312 24.4262 22.9652 24.7234 22.9991 24.8721C23.0399 25.0207 23.0807 25.1558 23.101 25.176C23.1214 25.1963 23.4815 25.122 23.9027 25.0207C24.3239 24.9193 24.7316 24.8045 24.8199 24.7707C24.949 24.7099 24.9693 24.6559 24.9693 24.3317C24.9693 24.0885 24.915 23.8521 24.8199 23.6427C24.7316 23.467 24.5753 23.2711 24.4598 23.2036C24.3443 23.136 24.1473 23.0888 24.0182 23.0888C23.8891 23.0955 23.7193 23.1158 23.6445 23.1293C23.5698 23.1495 23.4271 23.2238 23.3252 23.2914ZM30.3433 23.3387C30.2618 23.4197 30.1667 23.5684 30.1259 23.6764C30.0851 23.7778 30.024 23.9872 29.99 24.1493C29.9493 24.3249 29.956 24.4938 29.9968 24.6019C30.0512 24.7437 30.1463 24.791 30.5607 24.8788C30.8257 24.9328 31.2129 25.0409 31.4099 25.1152C31.7428 25.2368 31.77 25.2368 31.8651 25.1287C31.9399 25.0409 31.9806 24.8045 32.001 24.3317L32.035 23.6562C31.6953 23.3252 31.5118 23.1901 31.4099 23.1563C31.3012 23.1158 31.1178 23.082 31.0023 23.0888C30.88 23.0888 30.7102 23.1158 30.6354 23.1428C30.5539 23.1698 30.4248 23.2576 30.3433 23.3387V23.3387ZM25.4449 26.0204C25.0916 26.0812 24.4802 26.223 24.0861 26.3311C23.6921 26.4459 23.0331 26.6756 22.6255 26.8445C22.2178 27.0066 21.6471 27.27 21.3686 27.4187C21.09 27.574 20.7232 27.7902 20.5533 27.8983C20.3835 28.0131 20.0778 28.2428 19.8739 28.4116C19.6701 28.5805 19.1946 29.0061 18.8209 29.3641C18.4472 29.7153 18.0192 30.1139 17.8698 30.2422C17.7203 30.3706 17.3059 30.7218 16.9526 31.0258C16.5993 31.323 16.049 31.7553 15.7297 31.9782C15.4104 32.2011 14.8872 32.5254 14.5611 32.701C14.2079 32.8834 13.6915 33.0793 13.3043 33.1806C12.9374 33.2752 12.455 33.3495 12.2308 33.3495C11.9795 33.3495 11.6398 33.2887 11.3476 33.1941C11.0895 33.1063 10.7498 32.9712 10.6003 32.8969C10.4508 32.8158 10.1587 32.62 9.9549 32.4578C9.75108 32.2957 9.47253 32.0053 9.33665 31.8229C9.20078 31.6405 9.00376 31.323 8.88826 31.1204C8.77956 30.9177 8.60292 30.5124 8.5078 30.2287C8.40589 29.9382 8.27681 29.4992 8.22246 29.2492C8.16811 28.9926 8.07979 28.3914 8.01864 27.9118C7.96429 27.4322 7.91674 26.9255 7.91674 26.7972C7.92353 26.6689 7.88277 26.527 7.83521 26.4797C7.76727 26.4189 7.65178 26.5878 7.27811 27.3579C7.02674 27.8847 6.77537 28.4116 6.72102 28.5197C6.67346 28.6278 6.53079 29.0398 6.4017 29.4316C6.27262 29.8234 6.10277 30.4516 6.02125 30.8367C5.93293 31.2757 5.87858 31.7756 5.87858 32.2214C5.87858 32.701 5.91934 33.0725 6.01445 33.4508C6.09598 33.748 6.23865 34.1398 6.34056 34.3289C6.44247 34.5113 6.78216 34.9234 7.10147 35.2476C7.42078 35.5651 7.90994 35.9771 8.18849 36.1663C8.46704 36.3554 8.88147 36.5986 9.10566 36.7067C9.32986 36.8215 9.7307 36.9904 9.98887 37.085C10.247 37.1795 10.7362 37.3079 11.0759 37.3687C11.5447 37.4565 11.9251 37.4767 12.7064 37.4565C13.5556 37.4295 13.8274 37.3957 14.3369 37.2403C14.6766 37.139 15.1794 36.9499 15.4579 36.8215C15.7365 36.6932 16.1237 36.4905 16.3072 36.3689C16.4974 36.2541 16.8303 36.0244 17.0545 35.8556C17.2787 35.6934 17.7678 35.2679 18.1415 34.9099C18.5152 34.5519 18.9772 34.1263 19.1606 33.9574C19.3508 33.7886 19.6226 33.5589 19.772 33.4441C19.9215 33.3292 20.3359 33.0388 20.6892 32.8023C21.0425 32.5592 21.5928 32.2214 21.9121 32.0458C22.2314 31.8769 22.8293 31.5932 23.2369 31.4243C23.6445 31.2555 24.2424 31.0393 24.5617 30.9447C24.881 30.8569 25.4109 30.7286 25.7506 30.6678C26.1379 30.6002 26.7629 30.5597 27.4491 30.5529C28.1013 30.5462 28.7399 30.58 29.0457 30.6408C29.3242 30.688 29.8473 30.8029 30.2006 30.8974C30.5539 30.992 31.0634 31.1541 31.3216 31.2555C31.5798 31.3568 32.1369 31.6 32.5445 31.7959C32.9521 31.985 33.5976 32.3498 33.9712 32.5929C34.3449 32.8361 34.8476 33.1941 35.0922 33.39C35.3368 33.5791 35.9143 34.0925 36.383 34.5316C36.8518 34.9707 37.3885 35.457 37.572 35.6124C37.7622 35.7677 38.1087 36.0244 38.3533 36.1866C38.5978 36.3487 38.9987 36.5851 39.2569 36.7067C39.5082 36.8283 39.8751 36.9904 40.0721 37.0647C40.2623 37.139 40.6972 37.2606 41.0368 37.3349C41.492 37.4295 41.8997 37.47 42.6334 37.47C43.2788 37.47 43.768 37.4295 44.0601 37.3619C44.3047 37.3079 44.6987 37.193 44.9433 37.1052C45.1879 37.0174 45.6023 36.8418 45.8605 36.7067C46.1187 36.5783 46.5535 36.3149 46.8116 36.1325C47.0698 35.9501 47.4842 35.6191 47.722 35.403C47.9598 35.1801 48.2451 34.8693 48.3538 34.7005C48.4693 34.5316 48.6324 34.2614 48.7139 34.0925C48.7954 33.9237 48.9177 33.5792 48.9857 33.3157C49.0808 32.9442 49.0944 32.6672 49.0672 31.9985C49.0468 31.5324 48.9789 30.9245 48.9177 30.6475C48.8566 30.3706 48.7207 29.8842 48.6188 29.5667C48.5101 29.2492 48.3335 28.7629 48.218 28.4859C48.1093 28.209 47.8307 27.5943 47.5997 27.1214C47.3755 26.6418 47.1513 26.2636 47.1106 26.2771C47.0698 26.2838 47.029 26.5675 47.0087 26.9999C46.9951 27.3916 46.9475 27.9523 46.9068 28.2495C46.8728 28.5467 46.7777 29.0466 46.7029 29.3641C46.6282 29.6816 46.4923 30.1476 46.3972 30.4111C46.3021 30.6745 46.1119 31.0798 45.9828 31.323C45.8469 31.5662 45.5819 31.9242 45.3917 32.1201C45.2015 32.3227 44.8618 32.5997 44.6376 32.7348C44.4134 32.8766 44.0329 33.059 43.7884 33.1401C43.5438 33.2211 43.1022 33.309 42.8033 33.3292C42.3345 33.363 42.1714 33.3427 41.6483 33.1806C41.3086 33.0793 40.8194 32.8969 40.5613 32.7753C40.3031 32.6537 39.814 32.37 39.4743 32.1471C39.1346 31.9242 38.7201 31.6202 38.5503 31.4784C38.3737 31.3365 37.9321 30.9582 37.5652 30.6408C37.1915 30.3233 36.8247 29.9855 36.7431 29.8842C36.6548 29.7829 36.5733 29.7018 36.5529 29.7018C36.5325 29.7018 36.2064 29.4114 35.826 29.0534C35.4387 28.6953 34.9427 28.2698 34.7186 28.1144C34.4944 27.9523 34.1411 27.7294 33.9373 27.6146C33.7334 27.4997 33.2918 27.27 32.9521 27.1079C32.6125 26.9526 32.0689 26.7229 31.7292 26.6081C31.3896 26.4865 30.9004 26.3311 30.6422 26.2568C30.3841 26.1825 29.7998 26.0609 29.3514 25.9866C28.903 25.9191 28.2304 25.8448 27.8567 25.8245C27.4831 25.811 26.9328 25.8177 26.6338 25.8515C26.3349 25.8853 25.7982 25.9596 25.4449 26.0204V26.0204ZM24.6636 32.343C24.2152 32.4916 23.5902 32.7415 23.2709 32.8969C22.8021 33.1266 22.6866 33.2144 22.673 33.3495C22.6594 33.4643 22.741 33.6399 22.9312 33.8899C23.0807 34.0925 23.3524 34.383 23.529 34.5248C23.7057 34.6734 24.0929 34.9031 24.3919 35.045C24.6908 35.1801 25.2071 35.3624 25.5468 35.4503C26.0835 35.5921 26.3213 35.6056 27.4831 35.6056C28.6516 35.6056 28.8826 35.5921 29.4193 35.4503C29.759 35.3624 30.2618 35.1868 30.5403 35.0585C30.8189 34.9301 31.2061 34.7072 31.3896 34.5586C31.5798 34.41 31.8583 34.1128 32.0214 33.9034C32.1776 33.694 32.3067 33.4441 32.3135 33.3495C32.3135 33.2009 32.2252 33.1401 31.6477 32.8699C31.2809 32.6943 30.9072 32.5321 30.8121 32.5119C30.717 32.4849 30.5539 32.4173 30.4384 32.37C30.3229 32.3227 29.99 32.2214 29.6911 32.1471C29.3922 32.0728 28.9234 31.9782 28.6584 31.9377C28.3867 31.8972 27.8364 31.8702 27.4355 31.8702C27.0279 31.8769 26.43 31.9242 26.0903 31.9782C25.7506 32.0255 25.112 32.1944 24.6636 32.343V32.343ZM19.6565 35.3489C19.4323 35.5516 19.3304 35.7002 19.3304 35.815C19.3304 35.9096 19.4459 36.2068 19.5818 36.477C19.7449 36.7877 20.0098 37.139 20.3155 37.443C20.5737 37.7064 21.0085 38.0644 21.2667 38.2333C21.5249 38.3954 21.9393 38.6251 22.1839 38.7399C22.4284 38.848 22.8565 39.0169 23.135 39.1182C23.4136 39.2195 23.9842 39.3749 24.3919 39.4627C24.7995 39.5505 25.4449 39.6586 25.8186 39.7126C26.1922 39.7599 26.9871 39.7937 27.585 39.7937C28.2304 39.7869 28.9981 39.7396 29.4873 39.6653C29.9357 39.6045 30.683 39.4424 31.1518 39.3208C31.6545 39.179 32.3203 38.9358 32.7823 38.7129C33.2103 38.5035 33.7606 38.1928 34.0052 38.0104C34.2498 37.828 34.5555 37.5646 34.6914 37.4227C34.8273 37.2808 35.0379 37.0174 35.1669 36.8283C35.2892 36.6459 35.4455 36.3419 35.5202 36.1528C35.5882 35.9704 35.6289 35.7542 35.6085 35.6799C35.5882 35.6056 35.2892 35.3084 34.9427 35.0247C34.5963 34.7342 34.1818 34.3897 34.0256 34.2614C33.8625 34.1331 33.6859 34.025 33.6315 34.025C33.5772 34.025 33.4413 34.2006 33.3326 34.4168C33.2171 34.6397 32.9521 34.9774 32.7008 35.2138C32.463 35.4435 32.1369 35.7205 31.967 35.8353C31.7972 35.9434 31.4439 36.1325 31.1857 36.2541C30.9276 36.3689 30.4656 36.5378 30.1667 36.6324C29.8677 36.7269 29.3038 36.8418 28.9098 36.8958C28.5157 36.9499 27.8567 36.9971 27.4491 36.9971C27.0415 36.9971 26.3961 36.9499 26.0224 36.8958C25.6487 36.8418 25.0984 36.7202 24.7995 36.6324C24.5006 36.5446 24.0386 36.3757 23.7804 36.2609C23.5223 36.1393 23.1214 35.9096 22.8972 35.7542C22.673 35.5921 22.3537 35.3152 22.1839 35.1328C22.014 34.9504 21.7694 34.6262 21.6404 34.41C21.5113 34.2006 21.3686 34.025 21.3278 34.025C21.2871 34.025 20.9678 34.2546 20.6145 34.5383C20.2612 34.8221 19.8332 35.1868 19.6565 35.3489V35.3489ZM17.2583 37.3822C17.0681 37.497 16.7624 37.6861 16.5721 37.7942C16.3751 37.9023 16.2053 38.0577 16.1781 38.1387C16.1509 38.24 16.246 38.4562 16.5314 38.902C16.7488 39.26 17.1972 39.8072 17.564 40.1922C17.9173 40.5637 18.4404 41.0433 18.719 41.2527C18.9975 41.4621 19.4731 41.7931 19.772 41.9823C20.071 42.1714 20.6688 42.4889 21.0968 42.6915C21.5249 42.8942 22.1499 43.1509 22.4896 43.2657C22.8293 43.3805 23.2573 43.5156 23.4407 43.5697C23.631 43.6237 24.0046 43.7183 24.2764 43.7791C24.5413 43.8399 25.1732 43.9344 25.6691 43.9885C26.1583 44.0425 26.9328 44.0898 27.3812 44.0898C27.8296 44.0898 28.5633 44.0425 29.0117 43.9885C29.4601 43.9344 29.9968 43.8601 30.2006 43.8196C30.4044 43.7791 30.8053 43.6845 31.0838 43.6102C31.3624 43.5359 31.77 43.4143 31.9874 43.34C32.198 43.2725 32.66 43.1036 33.0065 42.9685C33.3462 42.8334 33.8761 42.597 34.175 42.4484C34.474 42.293 34.9156 42.0498 35.1602 41.9012C35.4047 41.7526 35.758 41.5162 35.9414 41.3743C36.1317 41.2325 36.4102 41.0231 36.5733 40.9015C36.7363 40.7799 37.1372 40.4016 37.4565 40.0639C37.7826 39.7261 38.2242 39.1857 38.4416 38.8683C38.6726 38.5102 38.822 38.2198 38.8153 38.132C38.8017 38.0509 38.7337 37.9496 38.659 37.9091C38.5843 37.8753 38.2785 37.7064 37.9796 37.5375C37.6807 37.3754 37.3274 37.139 37.1983 37.0174C37.0692 36.8958 36.9062 36.8012 36.845 36.7945C36.7635 36.7945 36.6752 36.9026 36.5869 37.0985C36.5121 37.2673 36.3355 37.5646 36.186 37.7604C36.0434 37.9496 35.7308 38.2941 35.4931 38.5238C35.2553 38.7467 34.8884 39.0506 34.6846 39.206C34.4808 39.3546 33.9305 39.6586 33.4617 39.8815C32.9929 40.1044 32.3543 40.3678 32.035 40.4624C31.7157 40.5637 31.2061 40.7056 30.9004 40.7799C30.5879 40.8542 29.9153 40.9623 29.4057 41.0231C28.6924 41.1041 28.1285 41.1244 27.0754 41.0974C26.3077 41.0704 25.4109 41.0096 25.0713 40.9555C24.7316 40.9015 24.2288 40.8069 23.9503 40.7461C23.6717 40.6853 23.1214 40.53 22.7274 40.4016C22.3333 40.2665 21.7083 40.0098 21.3346 39.8207C20.961 39.6316 20.4854 39.3614 20.2816 39.2128C20.0778 39.0641 19.7585 38.8007 19.5682 38.6318C19.3848 38.4562 19.1062 38.1522 18.9432 37.9631C18.7801 37.7672 18.5627 37.4227 18.4472 37.1998C18.3317 36.9769 18.2162 36.781 18.1823 36.7607C18.1483 36.7405 17.9988 36.8283 17.8562 36.9431C17.7135 37.0647 17.4417 37.2606 17.2583 37.3822V37.3822ZM34.9495 45.7718C34.9631 46.5013 34.9835 46.7107 35.0311 46.5891C35.065 46.4946 35.0922 46.0285 35.0786 45.5556C35.065 45.0355 35.0311 44.7045 34.9971 44.7383C34.9631 44.7653 34.9427 45.2314 34.9495 45.7718ZM22.014 5.97177C22.1295 5.99204 22.4352 6.10687 22.6934 6.22171C22.9516 6.34329 23.2233 6.51217 23.2913 6.59998C23.3524 6.69455 23.4068 6.88369 23.4068 7.01879C23.4068 7.21468 23.3592 7.32276 23.2029 7.47812C23.0671 7.61322 22.9312 7.68077 22.7953 7.68077C22.6798 7.68077 22.4013 7.5862 22.1703 7.47137C21.9325 7.36329 21.6675 7.22819 21.5724 7.17415C21.4773 7.12687 21.3618 7.01203 21.321 6.92422C21.2735 6.84316 21.2327 6.69455 21.2327 6.59998C21.2327 6.50541 21.2939 6.34329 21.3686 6.24197C21.4501 6.13389 21.5792 6.02581 21.6607 5.99204C21.7423 5.96502 21.8985 5.95151 22.014 5.97177V5.97177ZM33.0744 5.92449C33.1356 5.92449 33.2647 5.96502 33.3598 6.00555C33.4549 6.05283 33.5772 6.19469 33.6315 6.30952C33.6859 6.43111 33.7334 6.59323 33.7334 6.66753C33.7334 6.74183 33.6995 6.86342 33.6655 6.93773C33.6315 7.01203 33.3122 7.20792 32.9725 7.3768C32.626 7.54567 32.266 7.68077 32.1708 7.68077C32.0757 7.68077 31.9195 7.62673 31.8176 7.54567C31.7089 7.47137 31.6002 7.30925 31.573 7.18766C31.539 7.07283 31.5322 6.8972 31.5526 6.80938C31.573 6.72157 31.6817 6.57296 31.7972 6.4919C31.9127 6.41084 32.2184 6.24873 32.4766 6.13389C32.7347 6.01906 33.0065 5.93124 33.0744 5.92449ZM24.2764 7.61322C24.3171 7.61322 24.4394 7.65375 24.5345 7.69428C24.6297 7.74156 24.8267 7.95097 24.9693 8.15361C25.112 8.35626 25.309 8.70076 25.4042 8.91017C25.4993 9.12632 25.6419 9.54513 25.7167 9.84235C25.7914 10.1396 25.8526 10.4503 25.8526 10.5313C25.8526 10.6192 25.7982 10.761 25.7371 10.8488C25.6691 10.9434 25.5129 11.0582 25.3974 11.1055C25.2411 11.1663 25.1188 11.1731 24.9897 11.1258C24.881 11.092 24.7519 10.9974 24.6908 10.9096C24.6297 10.8218 24.5413 10.5854 24.4938 10.3827C24.4462 10.1801 24.3375 9.84235 24.256 9.6397C24.1677 9.43705 23.991 9.08579 23.8552 8.86288C23.7193 8.63997 23.6106 8.39004 23.6106 8.30222C23.6106 8.22116 23.6445 8.09282 23.6785 8.01852C23.7125 7.94421 23.8484 7.82262 23.9706 7.74832C24.0861 7.67401 24.2288 7.61322 24.2764 7.61322V7.61322ZM30.6694 7.68077C30.8868 7.68077 30.9887 7.7213 31.1518 7.88342C31.2944 8.02527 31.3556 8.14686 31.3556 8.30222C31.3556 8.43732 31.2537 8.6805 31.0974 8.93043C30.9547 9.15334 30.7713 9.48433 30.6966 9.67347C30.6218 9.85585 30.5199 10.1801 30.4724 10.3827C30.4248 10.5854 30.3365 10.8218 30.2754 10.9096C30.2142 10.9974 30.0647 11.092 29.9493 11.1325C29.7794 11.1798 29.6707 11.1663 29.5212 11.092C29.4057 11.038 29.2699 10.9231 29.2155 10.8353C29.1612 10.7543 29.1136 10.5921 29.1136 10.4841C29.1136 10.376 29.1748 10.0517 29.2563 9.7748C29.331 9.49784 29.5212 9.01149 29.6775 8.70076C29.8338 8.39004 30.058 8.03878 30.1735 7.91044C30.3501 7.7213 30.4384 7.68077 30.6694 7.68077V7.68077ZM20.7368 9.3695C20.8387 9.37626 21.0968 9.46407 21.3007 9.5789C21.5045 9.68698 21.817 9.88287 22.0004 10.0112C22.1771 10.1396 22.3673 10.349 22.4284 10.4638C22.5303 10.6597 22.5303 10.7137 22.4488 10.9164C22.3945 11.0447 22.279 11.2068 22.1839 11.2744C22.0887 11.3419 21.9393 11.4027 21.8442 11.4027C21.7491 11.4027 21.3618 11.2001 20.961 10.9366C20.5669 10.68 20.2272 10.4233 20.2001 10.3625C20.1661 10.3017 20.1457 10.1463 20.1525 10.018C20.1593 9.86937 20.2272 9.714 20.3495 9.5789C20.4786 9.43705 20.6009 9.3695 20.7368 9.3695V9.3695ZM34.1547 9.3695C34.2566 9.3695 34.406 9.39652 34.4808 9.43705C34.5555 9.47758 34.6642 9.59917 34.7186 9.70725C34.7729 9.81533 34.8205 9.9842 34.8205 10.0788C34.8205 10.1733 34.7933 10.3017 34.7593 10.3625C34.7321 10.43 34.3924 10.6867 34.012 10.9366C33.55 11.2474 33.2579 11.396 33.122 11.396C33.0065 11.396 32.8706 11.3757 32.8095 11.3419C32.7483 11.3149 32.6396 11.1798 32.5717 11.038C32.497 10.8961 32.4562 10.707 32.4766 10.5989C32.497 10.4976 32.5921 10.3355 32.694 10.2409C32.8027 10.1396 33.1288 9.90314 33.4209 9.714C33.747 9.5046 34.0324 9.3695 34.1547 9.3695V9.3695ZM23.1486 11.4635C23.2709 11.4568 23.4475 11.5176 23.5426 11.5851C23.6378 11.6527 23.8348 11.9094 23.991 12.1458C24.1405 12.3822 24.3919 12.855 24.5413 13.186C24.6976 13.517 24.881 13.9899 24.9626 14.233C25.0373 14.4762 25.1664 14.9288 25.2411 15.2463C25.3158 15.5638 25.3974 16.0974 25.4245 16.4284C25.4517 16.8337 25.4381 17.0859 25.3838 17.1849C25.343 17.2728 25.2003 17.3876 25.0713 17.4416C24.8878 17.5159 24.7791 17.5294 24.5957 17.4754C24.419 17.4281 24.3307 17.3471 24.256 17.1714C24.2016 17.0431 24.1541 16.8675 24.1541 16.7797C24.1541 16.6986 24.0929 16.3271 24.025 15.9556C23.9503 15.584 23.794 15.0031 23.6853 14.6721C23.5698 14.3411 23.3524 13.821 23.2029 13.5238C23.0535 13.2266 22.8429 12.8483 22.7342 12.6794C22.5983 12.4768 22.5371 12.2876 22.5371 12.1188C22.5371 11.9229 22.5847 11.808 22.7274 11.6594C22.8632 11.5243 22.9855 11.4635 23.1486 11.4635V11.4635ZM31.8651 11.4905C32.0146 11.5108 32.2048 11.5986 32.2931 11.6797C32.395 11.7878 32.4426 11.9161 32.4426 12.085C32.4426 12.2741 32.3407 12.5173 32.0486 12.9969C31.8312 13.3617 31.5934 13.794 31.5322 13.9628C31.4643 14.1317 31.3352 14.4762 31.2537 14.7397C31.1654 15.0031 31.0499 15.4422 30.9955 15.7191C30.9344 15.9961 30.8664 16.4081 30.8393 16.631C30.8189 16.854 30.7645 17.1039 30.7373 17.1849C30.7034 17.2728 30.5675 17.3876 30.4384 17.4416C30.255 17.5159 30.1463 17.5294 29.9628 17.4754C29.827 17.4349 29.6775 17.3268 29.6096 17.2187C29.5144 17.0701 29.5009 16.935 29.5348 16.4622C29.562 16.1447 29.6435 15.5975 29.7183 15.2463C29.7998 14.895 29.956 14.3479 30.0715 14.0304C30.187 13.7129 30.3773 13.2468 30.4996 12.9834C30.6218 12.7199 30.8528 12.3214 31.0159 12.0917C31.1789 11.8621 31.376 11.6256 31.4575 11.5649C31.5526 11.4838 31.6749 11.4635 31.8651 11.4905V11.4905ZM17.3942 15.4354C17.5844 15.4557 17.9037 15.5232 18.1075 15.5975C18.3114 15.6651 18.6443 15.834 18.8481 15.9758C19.0451 16.1109 19.344 16.4081 19.5139 16.631C19.6837 16.8675 19.8672 17.2187 19.9487 17.4754C20.0302 17.7456 20.0778 18.1036 20.0778 18.4211C20.0778 18.6981 20.037 19.0763 19.9826 19.2655C19.9283 19.4478 19.806 19.7383 19.7109 19.9072C19.6158 20.0761 19.412 20.3395 19.2489 20.4949C19.0859 20.6502 18.7733 20.8866 18.5491 21.015C18.2842 21.1704 17.9853 21.2852 17.6999 21.3325C17.4553 21.3662 17.0681 21.3865 16.8371 21.3662C16.5993 21.346 16.2324 21.2649 16.0218 21.1906C15.8044 21.1096 15.4851 20.9339 15.3017 20.7988C15.125 20.6637 14.8805 20.4138 14.7514 20.2449C14.6291 20.0761 14.4796 19.8464 14.4185 19.7383C14.3641 19.6302 14.269 19.36 14.2079 19.1439C14.1467 18.9345 14.0992 18.5832 14.0992 18.3671C14.0992 18.1577 14.1467 17.8132 14.2079 17.6105C14.269 17.4079 14.3777 17.1174 14.4592 16.9688C14.534 16.8202 14.7514 16.5365 14.9416 16.3338C15.1862 16.0771 15.4375 15.9015 15.784 15.7394C16.049 15.6178 16.4498 15.4895 16.6672 15.4624C16.8778 15.4287 17.2107 15.4152 17.3942 15.4354V15.4354ZM16.0218 17.1985C15.8588 17.3538 15.6685 17.6038 15.5938 17.7591C15.5123 17.9415 15.4579 18.1914 15.4579 18.4211C15.4579 18.6373 15.5123 18.9075 15.587 19.0628C15.655 19.2114 15.8452 19.4546 16.0082 19.5965C16.1713 19.7451 16.4091 19.9072 16.5314 19.9545C16.6469 20.0018 16.9118 20.0423 17.1088 20.0423C17.3059 20.0423 17.5844 19.9815 17.7339 19.9139C17.8833 19.8464 18.094 19.718 18.2094 19.6235C18.3249 19.5289 18.488 19.306 18.5763 19.1236C18.6918 18.8872 18.7394 18.6778 18.7394 18.3873C18.7394 18.1577 18.6918 17.8807 18.6307 17.7456C18.5695 17.6173 18.3657 17.3673 18.1755 17.1849C17.992 17.0093 17.8154 16.8675 17.7882 16.8675C17.7543 16.8675 17.6252 16.8337 17.4961 16.7999C17.367 16.7594 17.1836 16.7324 17.0885 16.7391C16.9933 16.7391 16.7827 16.7864 16.6129 16.8337C16.4362 16.8877 16.1849 17.0431 16.0218 17.1985V17.1985ZM37.9796 15.4287C38.1291 15.4422 38.4076 15.4895 38.5911 15.53C38.7813 15.5705 39.1142 15.6989 39.3384 15.8205C39.5626 15.942 39.8955 16.2055 40.0721 16.4014C40.2556 16.604 40.4594 16.8877 40.5273 17.0363C40.602 17.1849 40.7039 17.4889 40.7651 17.7118C40.8194 17.9347 40.867 18.2252 40.867 18.3536C40.867 18.4819 40.833 18.7724 40.7923 18.9953C40.7515 19.2182 40.636 19.5694 40.5409 19.7721C40.439 19.9747 40.174 20.3192 39.9498 20.5421C39.7256 20.7583 39.4063 21.0015 39.2365 21.0758C39.0666 21.1501 38.7609 21.2514 38.5571 21.2987C38.3533 21.346 38.034 21.3865 37.8437 21.3865C37.6603 21.3933 37.3206 21.346 37.0964 21.2852C36.8722 21.2244 36.5665 21.1163 36.417 21.0353C36.2676 20.961 35.9754 20.7313 35.7648 20.5219C35.5542 20.3057 35.296 19.9545 35.1669 19.7045C35.0515 19.4614 34.9292 19.0831 34.8952 18.8602C34.8612 18.6373 34.8612 18.2657 34.8952 18.0293C34.9292 17.7996 35.0175 17.4484 35.0922 17.2525C35.1669 17.0634 35.3368 16.7594 35.4659 16.577C35.595 16.4014 35.8463 16.1514 36.0298 16.0231C36.2064 15.8948 36.5189 15.7259 36.7227 15.6448C36.9266 15.5705 37.2323 15.4827 37.4021 15.4489C37.572 15.4219 37.8301 15.4152 37.9796 15.4287V15.4287ZM36.8246 17.1512C36.6548 17.293 36.451 17.5362 36.3763 17.6916C36.2811 17.8875 36.2268 18.1239 36.22 18.4211C36.2132 18.7791 36.2472 18.9142 36.3898 19.1641C36.485 19.333 36.6888 19.5627 36.8314 19.6708C36.9741 19.7856 37.1779 19.9139 37.2866 19.9612C37.3885 20.0085 37.6467 20.0423 37.8641 20.0423C38.1019 20.0423 38.3533 19.9882 38.5231 19.9139C38.6726 19.8396 38.9172 19.6505 39.0598 19.4884C39.2093 19.3263 39.3724 19.0966 39.4199 18.975C39.4675 18.8602 39.5082 18.5967 39.5082 18.4008C39.5082 18.2117 39.4675 17.9415 39.4131 17.8132C39.3656 17.6848 39.2297 17.4754 39.1278 17.3471C39.0191 17.2255 38.8085 17.0498 38.659 16.962C38.5095 16.881 38.2378 16.7932 38.0475 16.7729C37.8641 16.7526 37.5788 16.7729 37.4225 16.8202C37.2595 16.8675 36.9945 17.0161 36.8246 17.1512Z" fill="white" stroke="white" stroke-width="0.248276"/>
</svg>
