<svg width="24" height="24" viewBox="0 0 24 24" fill="none" xmlns="http://www.w3.org/2000/svg">
<g clip-path="url(#clip0_125_24092)">
<path fill-rule="evenodd" clip-rule="evenodd" d="M1 3C0.447715 3 0 3.44772 0 4V10C0 10.5523 0.447715 11 1 11H7C7.55228 11 8 10.5523 8 10C8 9.44772 7.55228 9 7 9H2V4C2 3.44772 1.55228 3 1 3Z" fill="white"/>
<path fill-rule="evenodd" clip-rule="evenodd" d="M10.8726 4.08125C12.59 3.83765 14.34 4.15882 15.8589 4.99636C17.3779 5.83389 18.5835 7.14241 19.294 8.72474C20.0046 10.3071 20.1816 12.0775 19.7985 13.7692C19.4153 15.4609 18.4927 16.9822 17.1697 18.1039C15.8466 19.2257 14.1949 19.887 12.4633 19.9883C10.7317 20.0896 9.0141 19.6254 7.56931 18.6656C6.12451 17.7058 5.03081 16.3024 4.453 14.6669C4.26903 14.1462 3.69774 13.8732 3.177 14.0571C2.65626 14.2411 2.38326 14.8124 2.56723 15.3331C3.28949 17.3775 4.65662 19.1317 6.46261 20.3315C8.26861 21.5312 10.4156 22.1115 12.5801 21.9849C14.7446 21.8583 16.8093 21.0316 18.4631 19.6294C20.1168 18.2273 21.2701 16.3256 21.7491 14.211C22.228 12.0963 22.0067 9.88334 21.1185 7.90543C20.2303 5.92752 18.7233 4.29187 16.8246 3.24495C14.9259 2.19804 12.7384 1.79658 10.5917 2.10107C8.45015 2.40483 6.46495 3.39476 4.93377 4.92215L0.314556 9.272C-0.0875168 9.65063 -0.106524 10.2835 0.2721 10.6856C0.650726 11.0876 1.28361 11.1067 1.68568 10.728L6.31568 6.36803C6.32304 6.3611 6.3303 6.35405 6.33744 6.3469C7.56357 5.12 9.15524 4.32484 10.8726 4.08125Z" fill="white"/>
</g>
<defs>
<clipPath id="clip0_125_24092">
<rect width="24" height="24" fill="white" transform="matrix(-1 0 0 1 24 0)"/>
</clipPath>
</defs>
</svg>
