<svg width="33" height="32" viewBox="0 0 33 32" fill="none" xmlns="http://www.w3.org/2000/svg">
<path fill-rule="evenodd" clip-rule="evenodd" d="M0.5 16C0.5 3.20036 3.69237 0 16.4601 0C29.2278 0 32.4202 3.20036 32.4202 16C32.4202 28.7996 29.2278 32 16.4601 32C3.69237 32 0.5 28.7996 0.5 16Z" fill="#D90217"/>
<path fill-rule="evenodd" clip-rule="evenodd" d="M24.3684 17.7097C24.1393 14.7275 22.7511 12.8585 21.5261 11.2093L21.525 11.2079C20.3907 9.68102 19.4111 8.36241 19.4111 6.41738C19.4111 6.26113 19.3236 6.11832 19.1849 6.04672C19.0457 5.97469 18.8785 5.98648 18.7519 6.07843C16.9119 7.39508 15.3767 9.61418 14.8404 11.7315C14.4681 13.2056 14.4189 14.8628 14.412 15.9573C12.7127 15.5944 12.3278 13.0527 12.3237 13.025C12.3046 12.8931 12.2241 12.7784 12.1069 12.7157C11.9885 12.6539 11.8493 12.6494 11.7293 12.7088C11.6402 12.7519 9.54215 13.818 9.42008 18.0743C9.41152 18.2159 9.41113 18.3579 9.41113 18.4999C9.41113 22.6349 12.7758 25.9994 16.9111 25.9994L16.9141 25.9996C16.9189 26 16.9238 26.0004 16.9278 25.9994H16.9331C21.0583 25.9875 24.4111 22.6276 24.4111 18.4999C24.4111 18.2919 24.3684 17.7097 24.3684 17.7097ZM12.0074 21.3716C12.4312 22.08 13.9083 24.1955 16.8977 24.1955C20.0099 24.1955 22.5445 21.5218 22.5445 18.5616C22.5445 18.3787 22.5377 18.0662 22.5253 17.8968C22.3452 15.4109 21.6204 14.4174 20.6839 13.1339C20.544 12.9422 20.3994 12.744 20.2511 12.5333C20.154 12.3953 20.0616 12.2644 19.9729 12.1387C19.2901 11.1712 18.8258 10.5133 18.1178 9.33333C17.5845 10 17.3578 10.4534 16.9178 11.3333C16.2511 12.6667 16.2511 15.2636 16.2511 16.6667V18.2667C16.0979 18.2054 15.839 18.1582 15.5153 18.0991C14.4306 17.9014 12.6183 17.5709 11.6149 16.1333C11.3098 16.7984 11.2511 17.5274 11.2511 18.6667C11.2512 19.5104 11.5845 20.6667 11.9845 21.3333C11.9918 21.3456 11.9995 21.3584 12.0074 21.3716Z" fill="white"/>
</svg>
