<svg width="30" height="34" viewBox="0 0 30 34" fill="none" xmlns="http://www.w3.org/2000/svg">
<path fill-rule="evenodd" clip-rule="evenodd" d="M24.2044 9.32684V11.8824C27.075 12.7784 29.1666 15.3771 29.1666 18.4808V26.709C29.1666 30.5515 25.981 33.6668 22.0536 33.6668H7.94792C4.01885 33.6668 0.833252 30.5515 0.833252 26.709V18.4808C0.833252 15.3771 2.9265 12.7784 5.7954 11.8824V9.32684C5.81233 4.35814 9.92769 0.333496 14.9745 0.333496C20.0891 0.333496 24.2044 4.35814 24.2044 9.32684ZM15.0086 3.2321C18.4465 3.2321 21.2409 5.96488 21.2409 9.32703V11.5232H8.75936V9.29391C8.77629 5.94832 11.5707 3.2321 15.0086 3.2321ZM16.4818 24.4249C16.4818 25.2364 15.8213 25.8824 14.9915 25.8824C14.1786 25.8824 13.5181 25.2364 13.5181 24.4249V20.7481C13.5181 19.9531 14.1786 19.3071 14.9915 19.3071C15.8213 19.3071 16.4818 19.9531 16.4818 20.7481V24.4249Z" fill="#BFECDC"/>
</svg>
